<svg xmlns="http://www.w3.org/2000/svg" xmlns:xlink="http://www.w3.org/1999/xlink" width="40" height="40" viewBox="0 0 40 40">
  <defs>
    <clipPath id="clip-path">
      <rect id="Rectangle_217" data-name="Rectangle 217" width="29.006" height="26.323" fill="none"/>
    </clipPath>
  </defs>
  <g id="Groupe_4319" data-name="Groupe 4319" transform="translate(-439 -481)">
    <g id="Groupe_42" data-name="Groupe 42" transform="translate(-50 271)">
      <rect id="Rectangle_132" data-name="Rectangle 132" width="40" height="40" rx="5" transform="translate(489 210)" fill="none"/>
    </g>
    <g id="Groupe_4320" data-name="Groupe 4320" transform="translate(444.497 487.838)">
      <g id="Groupe_4317" data-name="Groupe 4317" clip-path="url(#clip-path)">
        <path id="Tracé_51" data-name="Tracé 51" d="M3.6.014,25.3,0a3.776,3.776,0,0,1,3.708,3.714v18.9A3.785,3.785,0,0,1,25.3,26.323H3.708A3.776,3.776,0,0,1,0,22.609L0,3.673A3.764,3.764,0,0,1,3.6.014M6,3.792c-3.7.435-2.756,6.452.98,5.524C10.289,8.493,9.414,3.391,6,3.792M16.979,9.416a1.477,1.477,0,0,0-.735.4l-5.076,7.663c-.546-.574-.963-1.355-1.491-1.932a1.388,1.388,0,0,0-2.258.152C6.141,17.161,5,18.945,3.78,20.469a1.423,1.423,0,0,0,1.089,2.076H24.179a1.429,1.429,0,0,0,.99-2.145L18.332,10.009a1.323,1.323,0,0,0-1.353-.594" fill="#fed4d0"/>
      </g>
    </g>
  </g>
</svg>
