<svg xmlns="http://www.w3.org/2000/svg" width="40" height="40" viewBox="0 0 40 40">
  <g id="icon-testimony" transform="translate(-320 -504)">
    <rect id="Rectangle_252" data-name="Rectangle 252" width="40" height="40" rx="5" transform="translate(320 504)" fill="none"/>
    <path id="Tracé_3321" data-name="Tracé 3321" d="M27,0V23.673H23.639v-2.2l-6.875-1.931A5.054,5.054,0,0,1,6.8,17.828a8.36,8.36,0,0,1,.3-1.106L3.361,15.679v1.236H0V6.758H3.361V7.994L23.639,2.143V0ZM14.325,18.851,9.558,17.492l-.061.025a2.544,2.544,0,0,0,3.017,3.511,2.414,2.414,0,0,0,1.81-2.176" transform="translate(326.5 512.163)" fill="#fbcda0"/>
  </g>
</svg>
