<svg xmlns="http://www.w3.org/2000/svg" width="40" height="40" viewBox="0 0 40 40">
  <g id="icon-quiz" transform="translate(-320 -504)">
    <rect id="Rectangle_252" data-name="Rectangle 252" width="40" height="40" rx="5" transform="translate(320 504)" fill="none"/>
    <g id="icon-quiz-2" data-name="icon-quiz" transform="translate(327.402 511)">
      <path id="Tracé_77" data-name="Tracé 77" d="M374.192,0a3.008,3.008,0,0,1,2.129,1.514,5.319,5.319,0,0,1,.3,2.541,4.076,4.076,0,0,1,3.884,5.319c-.09.288-.243.552-.352.831a4.1,4.1,0,0,1,.559,6.854,4.1,4.1,0,0,1-3.382,6.526,3.214,3.214,0,0,1-2.242,2.313,4.039,4.039,0,0,1-.456.1h-3.7V0Z" transform="translate(-357.117)" fill="#a0bcfc"/>
      <path id="Tracé_78" data-name="Tracé 78" d="M11.383,0V26H7.722a4.239,4.239,0,0,1-.427-.093,3.18,3.18,0,0,1-2.308-2.321A4.3,4.3,0,0,1,2.6,22.869a4.048,4.048,0,0,1-1.433-5.028c.123-.275.3-.514.435-.781a4.429,4.429,0,0,1-1.47-2.211,4.06,4.06,0,0,1,2.034-4.621A4.121,4.121,0,0,1,5.7,4.055C5.68,2.927,5.583,1.92,6.346,1A2.989,2.989,0,0,1,8.131,0Z" transform="translate(0)" fill="#a0bcfc"/>
    </g>
  </g>
</svg>
